<?xml version="1.0" encoding="UTF-8" standalone="no"?><!DOCTYPE svg PUBLIC "-//W3C//DTD SVG 1.1//EN" "http://www.w3.org/Graphics/SVG/1.1/DTD/svg11.dtd"><svg width="100%" height="100%" viewBox="0 0 840 540" version="1.1" xmlns="http://www.w3.org/2000/svg" xmlns:xlink="http://www.w3.org/1999/xlink" xml:space="preserve" xmlns:serif="http://www.serif.com/" style="fill-rule:evenodd;clip-rule:evenodd;stroke-linecap:round;stroke-linejoin:round;stroke-miterlimit:1.5;"><g id="Ebene1"><path d="M698.325,477.797c0,0 -3.768,7.191 -18.1,-44.124c-14.333,-51.315 0.287,-147.134 1.432,-157.487" style="fill:none;stroke:#000;stroke-width:3px;"/><path d="M706.671,223.278c0,0 16.331,-55.849 11.604,-57.926c-4.727,-2.076 -46.015,-71.282 -68.266,-64.689c-22.252,6.592 -14.275,82.802 -14.275,82.802c0,0 11.919,140.541 70.937,39.813Z" style="fill:none;stroke:#000;stroke-width:3px;"/></g><g id="Ebene5"><path d="M765.956,443.635c0,0 2.296,7.786 -43.702,-19.098c-45.999,-26.885 -102.168,-105.878 -108.549,-114.111" style="fill:none;stroke:#000;stroke-width:3px;"/><path d="M653.77,357.837c0,0 -58.852,20.743 -89.857,-20.528c-31.004,-41.271 -45.873,-62.879 -45.873,-62.879l50.975,15.894l-18.204,-42.286l35.789,19.562l-5.412,-39.108l27.82,13.688l-2.551,-34.624c0,0 76.642,87.059 47.313,150.281" style="fill:none;stroke:#000;stroke-width:3px;"/></g><g id="Ebene6"><path d="M628.94,457.612c0,0 -7.609,2.829 16.034,-44.916c23.644,-47.746 98.57,-109.236 106.342,-116.171" style="fill:none;stroke:#000;stroke-width:3px;"/><path d="M676.161,369.14c0,0 35.837,-7.329 59.432,-25.57c23.594,-18.241 4.918,-20.947 4.918,-20.947l19.272,0l0,-11.915l27.203,-2.632l-4.736,-35.069l28.765,-6.202l0,-31.933l-114.975,97.916" style="fill:none;stroke:#000;stroke-width:3px;"/></g><g id="Ebene2"><path d="M225.5,344.355c0,0 -99.703,35.271 -103.141,81.66c-5.369,18.841 -16.092,67.71 32.05,69.732c34.373,1.444 91.609,-21.549 171.904,-45.211c17.518,-5.162 74.796,-27.483 75.873,-45.552c1.077,-18.068 3.929,-24.174 0.921,-30.529c-3.007,-6.354 -16.79,-22.013 -29.455,-26.558c-12.664,-4.545 -148.304,-12.531 -214.766,40.125" style="fill:none;stroke:#000;stroke-width:3px;"/><path d="M182.748,375.776c0,0 30.669,47.274 33.092,49.684c2.423,2.411 19.778,-61.466 31.424,-58.706c11.646,2.761 25.816,58.946 38.006,41.361c12.191,-17.586 9.648,-48.961 23.779,-37.517c14.13,11.445 16.096,48.653 35.829,0.101c19.733,-48.552 23.182,-49.688 28.742,-49.688" style="fill:none;stroke:#000;stroke-width:3px;"/></g><g id="Ebene3"><path d="M98.911,107.296c0,0 31.655,-12.486 62.485,10.001c30.831,22.487 59.767,65.917 56.968,89.997c-2.8,24.08 10.316,58.885 -98.429,93.867c-41.032,2.268 -90.625,14.602 -102.69,-48.374c-0.736,-32.768 -8.1,-78.387 19.71,-111.615c14.519,-11.415 25.888,-23.478 44.273,-30.142c12.5,-8.37 26.505,-19.966 44.363,-7.006" style="fill:none;stroke:#000;stroke-width:3px;"/><path d="M205.274,241.681c0,0 -27.261,6.964 -31.025,32.728c-2.15,11.066 -2.874,34.749 10.18,10.733c13.055,-24.016 12.154,-45.043 4.043,-21.192c-8.111,23.85 3.734,34.937 9.714,21.862c5.98,-13.076 8.196,-43.941 -6.923,-43.455" style="fill:none;stroke:#000;stroke-width:3px;"/><path d="M171.215,276.316c0,0 -22.139,2.293 -22.028,-13.967c0.111,-16.26 10.13,-19.774 24.033,-19.206c13.903,0.568 16.839,9.012 15.85,22.981c-0.989,13.969 -3.301,51.192 -22.223,36.802c-12.077,-4.37 -29.586,-17.68 -19.334,-68.38c6.996,-14.495 21.762,-29.728 37.513,-18.56c8.967,10.827 10.748,19.512 4.044,50.138" style="fill:none;stroke:#000;stroke-width:3px;"/></g><g id="Ebene4"><path d="M387.219,115.458c0,0 -43.506,1.328 -46.132,0.988c-2.626,-0.341 -25.658,-5.548 -44.14,36.419c-18.482,41.968 -22.68,64.452 -17.583,81.39c5.098,16.937 47.043,51.186 98.032,53.075c50.989,1.888 87.617,8.393 98.906,-88.524c-0.943,-41.317 -0.173,-62.624 -24.823,-92.435c-11.243,-12.014 -53.961,-14.853 -77.482,-10.871c-8.808,1.491 -8.903,4.232 -12.365,7.381" style="fill:none;stroke:#000;stroke-width:3px;"/><path d="M408.183,144.72c0,0 10.204,-8.034 18.505,-5.848c8.301,2.186 9.738,11.738 5.314,15.641c-4.424,3.904 -31.877,2.175 -36.77,-11.234c-4.893,-13.408 -4.296,-32.766 9.154,-33.872c13.449,-1.106 42.429,-0.7 46.177,3.728c3.747,4.428 8,32.853 2.475,45.496c-1.721,3.938 -5.973,14.363 -14.07,18.204c-17.894,8.488 -44.861,3.317 -36.136,-44.261" style="fill:none;stroke:#000;stroke-width:3px;"/><path d="M423.501,165.467c0,0 -52.61,-3.689 -57.582,-21.858c-4.972,-18.17 -10.596,-27.005 31.687,-24.534c19.285,1.671 38.399,-0.024 40.904,12.687c2.506,12.71 -8.696,50.704 -53.197,18.78c-4.625,-10.043 -1.958,-15.129 -0.084,-25.684" style="fill:none;stroke:#000;stroke-width:3px;"/><path d="M391.107,122.61c0,0 39.275,-3.083 14.622,44.377c-8.783,8.897 -18.315,10.224 -29.804,9.204c-11.49,-1.02 -28.781,0.404 -27.141,-17.212c1.641,-17.616 17.782,-37.998 30.197,-39.411c12.416,-1.412 46.272,-0.696 50.517,1.595c4.246,2.292 13.245,6.125 8.907,26.394c-4.338,20.269 -55.125,18.65 -49.924,-8.428c5.202,-27.079 19.471,-12.805 28.647,-9.501c9.177,3.304 6.388,19.392 0.943,26.255" style="fill:none;stroke:#000;stroke-width:3px;"/></g></svg>